<?xml version="1.0" encoding="UTF-8" standalone="no"?>
<!-- Created with Inkscape (http://www.inkscape.org/) -->

<svg
   width="96"
   height="96"
   viewBox="0 0 25.400001 25.399999"
   version="1.1"
   id="svg8"
   inkscape:version="1.4.2 (f4327f4, 2025-05-13)"
   sodipodi:docname="pocx_logo_notext.svg"
   inkscape:export-filename="pocx_logo_notext.png"
   inkscape:export-xdpi="48"
   inkscape:export-ydpi="48"
   xmlns:inkscape="http://www.inkscape.org/namespaces/inkscape"
   xmlns:sodipodi="http://sodipodi.sourceforge.net/DTD/sodipodi-0.dtd"
   xmlns="http://www.w3.org/2000/svg"
   xmlns:svg="http://www.w3.org/2000/svg"
   xmlns:rdf="http://www.w3.org/1999/02/22-rdf-syntax-ns#"
   xmlns:cc="http://creativecommons.org/ns#"
   xmlns:dc="http://purl.org/dc/elements/1.1/">
  <defs
     id="defs2" />
  <sodipodi:namedview
     id="base"
     pagecolor="#ffffff"
     bordercolor="#666666"
     borderopacity="1.0"
     inkscape:pageopacity="0.0"
     inkscape:pageshadow="2"
     inkscape:zoom="1.4142136"
     inkscape:cx="246.07315"
     inkscape:cy="0.35355338"
     inkscape:document-units="mm"
     inkscape:current-layer="layer1"
     showgrid="false"
     units="px"
     fit-margin-top="25"
     fit-margin-left="25"
     fit-margin-right="25"
     fit-margin-bottom="10"
     inkscape:window-width="1920"
     inkscape:window-height="1057"
     inkscape:window-x="1924"
     inkscape:window-y="1072"
     inkscape:window-maximized="1"
     inkscape:showpageshadow="2"
     inkscape:pagecheckerboard="0"
     inkscape:deskcolor="#d1d1d1" />
  <metadata
     id="metadata5">
    <rdf:RDF>
      <cc:Work
         rdf:about="">
        <dc:format>image/svg+xml</dc:format>
        <dc:type
           rdf:resource="http://purl.org/dc/dcmitype/StillImage" />
      </cc:Work>
    </rdf:RDF>
  </metadata>
  <g
     inkscape:label="Ebene 1"
     inkscape:groupmode="layer"
     id="layer1"
     transform="translate(2.5148219,-156.66853)">
    <g
       id="g1"
       transform="translate(-2.3809916,-4.081852)">
      <path
         style="fill:#7f7f7f;fill-opacity:1;stroke-width:2.07723"
         d="m 54.058594,27.431641 a 31.999371,31.999371 0 0 0 -32,32 31.999371,31.999371 0 0 0 32,31.998047 31.999371,31.999371 0 0 0 31.998047,-31.998047 31.999371,31.999371 0 0 0 -31.998047,-32 z m 0,25.044921 a 6.9551382,6.9551382 0 0 1 6.955078,6.955079 6.9551382,6.9551382 0 0 1 -6.955078,6.955078 6.9551382,6.9551382 0 0 1 -6.955078,-6.955078 6.9551382,6.9551382 0 0 1 6.955078,-6.955079 z"
         transform="matrix(0.26458333,0,0,0.26458333,-1.7365748,156.02543)"
         id="path819"
         inkscape:connector-curvature="0" />
      <path
         sodipodi:type="star"
         style="fill:#d9d9d9;fill-opacity:1;stroke-width:0.264583"
         id="path4562"
         sodipodi:sides="3"
         sodipodi:cx="8.0860815"
         sodipodi:cy="174.04561"
         sodipodi:r1="8.4940109"
         sodipodi:r2="4.2470055"
         sodipodi:arg1="0.52359878"
         sodipodi:arg2="1.5707963"
         inkscape:flatsided="false"
         inkscape:rounded="0"
         inkscape:randomized="0"
         d="m 15.442111,178.29261 -7.3560294,0 -7.35602936,0 3.67801456,-6.3705 3.6780147,-6.37051 3.6780145,6.37051 z"
         inkscape:transform-center-y="-1.0979989"
         transform="matrix(0.20908004,0.15716132,-0.59328691,0.78928103,111.54239,41.525832)"
         inkscape:transform-center-x="-0.49083056" />
    </g>
  </g>
</svg>
